<svg width="59" height="47" fill="none" xmlns="http://www.w3.org/2000/svg"><path d="M4.488 39.278c.23.285.352.643.346 1.01a1.604 1.604 0 0 1-.536 1.277c-.447.339-1 .504-1.559.466H0v-6.405h2.683a2.284 2.284 0 0 1 1.487.426 1.464 1.464 0 0 1 .52 1.198c.016.353-.095.7-.311.98-.209.254-.496.43-.817.5.363.067.692.26.926.548zm-3.213-.967H2.42c.261.02.52-.056.73-.213a.761.761 0 0 0 .246-.626.788.788 0 0 0-.243-.625 1.106 1.106 0 0 0-.751-.216H1.275v1.68zm1.988 2.456a.796.796 0 0 0 .271-.65.81.81 0 0 0-.277-.658 1.18 1.18 0 0 0-.78-.231H1.276v1.761h1.218c.274.016.546-.062.77-.222zM9.972 42.031L8.48 39.528h-.561v2.503H6.635v-6.405h2.43a2.39 2.39 0 0 1 1.693.545 2.047 2.047 0 0 1 .18 2.65c-.3.345-.709.575-1.159.65l1.59 2.56H9.972zM7.92 38.655h1.05c.73 0 1.094-.323 1.094-.97a.956.956 0 0 0-.268-.72 1.135 1.135 0 0 0-.826-.26H7.906l.013 1.95zM16.99 40.742h-2.558l-.452 1.29h-1.346l2.35-6.334h1.455l2.34 6.333h-1.346l-.442-1.289zm-.342-.97l-.935-2.703-.935 2.703h1.87zM25.776 42.031H24.5l-2.857-4.355v4.355h-1.272v-6.405h1.272l2.857 4.38v-4.38h1.275v6.405zM33.05 40.498a2.757 2.757 0 0 1-1.153 1.13c-.555.281-1.17.42-1.792.403h-2.27v-6.405h2.27a3.816 3.816 0 0 1 1.792.395c.488.246.89.636 1.153 1.117a3.735 3.735 0 0 1 0 3.36zm-1.459-.153a2.352 2.352 0 0 0 0-3.057 2.21 2.21 0 0 0-1.595-.545h-.885v4.146h.885a2.21 2.21 0 0 0 1.595-.544zM17.789 0S34.24 6.236 33.89 15.26v15.263s-16.439-6.24-16.096-15.263L17.789 0zM48.547 26.95A22.486 22.486 0 0 1 59 23.082v-4.778a21.467 21.467 0 0 0-10.453 8.646z" fill="#AFB1B8"/><path d="M46.68 28.389A22.382 22.382 0 0 1 59 17.303V3.536s-23.43 8.883-22.934 21.733V47s1.044-.397 2.687-1.142c0-.695 0-1.395.075-2.1A22.606 22.606 0 0 1 46.68 28.39z" fill="#AFB1B8"/><path d="M44.453 36.462c.123-1.507.397-2.998.82-4.45a21.04 21.04 0 0 0-4.962 13.126 68.028 68.028 0 0 0 4.506-2.384 22.573 22.573 0 0 1-.364-6.292zM45.385 36.54a21.58 21.58 0 0 0 .29 5.698c6.4-3.846 13.593-9.788 13.316-16.968v-.626a20.972 20.972 0 0 0-12.18 5.713 21.492 21.492 0 0 0-1.426 6.183z" fill="#AFB1B8"/></svg>